<?xml version="1.0" encoding="utf-8"?>
<!-- Generator: Adobe Illustrator 19.0.0, SVG Export Plug-In . SVG Version: 6.00 Build 0)  -->
<svg version="1.1" id="layer" xmlns="http://www.w3.org/2000/svg" xmlns:xlink="http://www.w3.org/1999/xlink" x="0px" y="0px"
	 viewBox="-153 -46 652 652" style="enable-background:new -153 -46 652 652;" xml:space="preserve">
<style type="text/css">
	.st0{fill:#9EA2A2;}
	.st1{fill:#707271;}
	.st2{fill:#373A36;}
	.st3{fill:#061922;}
	.st4{fill:#CE1141;}
	.st5{fill:#FFFFFF;}
</style>
<g>
	<g>
		<path class="st0" d="M399,178.7c-37.8-90.1-127-153.5-230.6-153.5S-24.4,88.6-62.2,178.7c-64,16.3-103.9,39.3-103.9,64.8
			l0.1,108.9c0-22.9,32.2-42.1,85.2-57.9C-71,423.4,37.1,525.2,168.4,525.2s239.4-101.8,249.3-230.7c53,15.8,85.2,35,85.2,57.9
			l0.1-108.9C503,218,463.1,195,399,178.7z"/>
		<path class="st1" d="M502.7,349.3c0-0.4-0.1-0.8-0.2-1.2c-0.1-0.4-0.2-0.9-0.3-1.3c-0.1-0.3-0.1-0.5-0.2-0.8
			c-0.1-0.5-0.3-1.1-0.5-1.6c0-0.2-0.1-0.3-0.2-0.5c-0.2-0.6-0.5-1.3-0.8-1.9c0-0.1,0-0.1-0.1-0.2c-3.4-7.6-10.6-14.8-21.1-21.6
			c-16.6,11-41.9,21.4-72.5,29.7v0l0,0c-4.1,13-9.2,25.6-15.3,37.7v0l0,0c-6.1,12-13.1,23.5-21,34.3l0,0
			c78.9-16,130.4-41.2,132.3-69.6c0-0.7,0-1.4-0.1-2.2C502.8,350,502.7,349.6,502.7,349.3z"/>
		<path class="st1" d="M-165.8,349.3c0-0.4,0.1-0.8,0.2-1.2c0.1-0.4,0.2-0.9,0.3-1.3c0.1-0.3,0.1-0.5,0.2-0.8
			c0.1-0.5,0.3-1.1,0.5-1.6c0-0.2,0.1-0.3,0.2-0.5c0.2-0.6,0.5-1.3,0.8-1.9c0-0.1,0-0.1,0.1-0.2c3.4-7.6,10.6-14.8,21.1-21.6
			c16.6,11,41.9,21.4,72.5,29.7v0l0,0c4.1,13,9.2,25.6,15.3,37.7c0,0,0,0,0,0l0,0c6.1,12,13.1,23.5,21,34.3l0,0
			c-78.9-16-130.4-41.2-132.3-69.6c0-0.7,0-1.4,0.1-2.2C-165.9,350-165.9,349.6-165.8,349.3z"/>
		<circle class="st2" cx="168.4" cy="275.2" r="237"/>
		<g>
			<path class="st3" d="M471.2,217.4c-15.7-10-39.5-19.3-68.8-27.2c-4.6-1.2-9.2-2.4-14-3.5C353.2,99.7,268,38.2,168.4,38.2
				S-16.4,99.7-51.5,186.7c-4.8,1.1-9.5,2.3-14,3.5c-29.3,7.8-53.1,17.2-68.8,27.2c-9.8,6.2-21.5,15.7-21.5,26.1v74.6
				c17.7-14.3,46.3-26.8,85-37.2c0.8-0.2,1.5-0.4,2.3-0.6c2.7,128.5,107.8,231.9,236.9,231.9s234.2-103.3,236.9-231.9
				c0.8,0.2,1.6,0.4,2.3,0.6c38.7,10.3,67.3,22.8,85,37.2v-74.6C492.6,233.2,480.9,223.6,471.2,217.4z M318.7,126.3
				c0.8-1.8,3.2-2.2,4.6-0.8c15.8,16.3,28.9,35.1,39,55.7c-2-0.4-4-0.8-6-1.1c-12.9-14.5-27.3-27.6-43.1-39
				C314.6,135.9,316.4,131,318.7,126.3z M263.7,81.9c14.6,7.2,28.2,16,40.7,26.1c2.7,2.2,3.5,5.9,1.9,9c-2.5,4.8-4.6,9.8-6.3,15.1
				c-11.4-7.2-23.4-13.5-35.9-18.9c-1.7-9-3.7-17.9-6-26.6C257.2,83.3,260.6,80.4,263.7,81.9z M199.8,62.1c10.8,1.6,21.4,4,31.7,7.1
				c3.9,1.2,6.8,4.2,8,8c3,9.7,5.6,19.5,7.8,29.5c-12.5-4.3-25.3-7.8-38.6-10.2c-1.7-5.5-3.7-11-6.2-16.3c-2-4.2-4.2-8.3-6.6-12.2
				C194.1,65.2,196.5,61.6,199.8,62.1z M383.9,275.2c0,38.3-10,74.2-27.5,105.3c-1,1.8-3.9,0.8-3.4-1.3l0-0.1
				c8.3-37.4,6.5-75.4-4.9-110.9c-1-3.1-2.1-6.3-3.2-9.4c-0.5-1.4-1.8-2.4-3.3-2.7l-9.7-1.6c-2.4-0.4-4.3,2-3.4,4.2
				c0.9,2.2,1.8,4.5,2.6,6.7c12.8,35,15.3,73,7,110.3c-0.5,2.2-1,4.3-1.5,6.4c-8.8,34-32.9,61.7-65.1,75.8
				c-27.1,11.9-56.9,18.6-88.3,18.7c-13.6,0.1-26.8-1.1-39.7-3.4c-5.3-0.9-7.1-7.7-3-11.1c7.5-6.4,14.8-13,21.8-20.1
				c5-5,9.9-10.2,14.6-15.4c2-2.2,3-5.2,2.9-8.2l-0.4-12.9c-0.1-2-2.5-2.8-3.7-1.3c-16.4,20.2-35,38.5-55.5,54.6
				c-5.1,4.1-12.1,5-18.2,2.6c-29.1-11.4-55.1-28.9-76.7-50.8c-4.3-4.4-6.3-10.7-5-16.8c5.8-26.2,16.3-51.3,31.1-73.8
				c1.3-1.9,0.4-4.6-1.9-5.3c-2.7-0.8-5.4-1.8-7.9-2.7c-1.5-0.6-3.1,0-4,1.3c-12.3,19.2-21.8,40-28.1,61.8
				c-1.5,5.2-8.4,6.3-11.4,1.8c-19.9-30.3-32.6-65.8-35.7-104c-0.5-5.9-0.7-11.9-0.7-17.9c0-0.7,0-1.3,0-2
				c0.3-27.8,10.6-54.5,28.9-75.1c3.1-3.4,6.3-6.7,9.8-9.8c31.8-28,70.9-47.8,114.1-56.3c1.3-5.2,2.7-10.6,4.4-16.2
				c-42.5,7.1-81.4,24.5-114.3,49.5c-3.1,2.3-7-1.6-4.6-4.6C40,90.8,101.7,59.1,170.7,59.8c0,0,0,0,0,0c7.2,7.9,13.2,16.9,17.8,26.8
				c1.1,2.4,2.1,4.9,3.1,7.4c-9.8-1.1-19.8-1.7-29.9-1.7c-4.7,0-9.4,0.1-14.1,0.4c1.4,4.8,2.6,9.8,3.8,15c3.4-0.1,6.9-0.2,10.3-0.2
				c11.7,0,23.2,0.8,34.5,2.4c0.9,4.5,1.6,9,1.9,13.5c0.1,1.3,1,2.3,2.2,2.7c4.9,1.3,9.3,3,13.3,5c0-6.1-0.5-12.2-1.4-18.3
				c13.1,2.8,25.9,6.6,38.2,11.4c2,12.3,3.4,24.8,4.1,37.4c0.1,2,1.6,3.7,3.6,4l9.1,1.5c1.5,0.2,2.8-0.9,2.7-2.4
				c-0.5-11.2-1.5-22.3-3-33.4c10.1,4.8,19.8,10.3,29.1,16.4c-1.2,6.6-1.7,13.3-1.7,19.8c0,1.5,0.8,2.9,1.9,3.7
				c0.5,0.4,1.2,0.7,1.9,0.8l9.2,1.5c0.8,0.1,1.5-0.2,1.9-0.8c0.3-0.3,0.4-0.8,0.4-1.3c-0.2-4.6-0.1-9.3,0.4-13.9
				c7.4,5.7,14.5,11.8,21.3,18.2c20.6,19.8,37.8,43.2,50.5,69.2C383.1,254.9,383.9,264.9,383.9,275.2
				C383.9,275.2,383.9,275.2,383.9,275.2z"/>
		</g>
		<g>
			<path class="st0" d="M217.7,261.6l0.4-34.1c0-16-16.7-18.7-28.9-18.5c8.2-2.7,18.1-7.4,25.3-15.1c7.5-7,12.9-16.7,12-30.5
				c-1.6-23.1-30.5-34.6-78.4-30c-0.8,0.1-1.6,0.2-2.3,0.2c-2.3-17.1-5.8-33.6-11.1-48.9l-2.4,2.4c-6.4,19.8-10.2,35.5-12.4,50.1
				c-28.6,4.9-48.6,11.5-48.6,11.5l-2.4,2.4c0,0,23.1-2.1,49.5-1.7c-2.9,30,0.1,58.4,0,112.2c-42.6-1.2-80,5.9-89.1,17.3
				c-3,2.5-4.6,5.2-4.5,8.1c0.5,13,39.2,25,93.6,29.6l2.3,73.9l2.4-2.4l3.8-50.1c0-0.8,0.1-1.5,0.3-2.1c1.1,0.2,2.2,1.6,2.2,4.2
				l1.7,66l2.4-2.4l4.1-53.7c0-1.2,0.1-2.2,0.3-3c1.2,0.2,2.2,1.9,2.1,4.9l1.9,68.8l2.4-2.4l3.3-100.2c6.3,0.2,12.6,0.3,19.1,0.3
				c6.9,0,13.7-0.1,20.3-0.3l3.3,104.4l2.4-2.4l2.8-54.7c0-1.1,0.1-2,0.3-2.8c1.1,0.3,2.1,1.8,2.1,4.7l2.8,76.6l2.4-2.4l2.9-66.2
				c0-0.9,0.2-1.7,0.4-2.4c1.4,0,2.7,1.6,2.8,4.8l2.4,87.8l2.4-2.4l3.4-147c46.5-4.1,81.8-13.4,90.6-24.2c2.9-2.4,4.5-5,4.5-7.5
				C311.4,270.3,268.4,259.2,217.7,261.6 M117.9,301c-37.3-3.6-62.5-11.2-62.5-20.7c0-0.7,0.2-1.4,0.6-2c8.7-6.1,35.5-10,62.3-14.1
				c0,10.5-0.2,22-0.5,34.6L117.9,301z M193.8,172.6c1.4,10.6-1.6,18.5-7,24.5c-9.7,8.8-25,12.8-37.4,14.7
				c0.2-19.9-0.1-40.6-1.8-60.8C171.5,153.5,192.1,159.6,193.8,172.6 M186.8,303c-5.8,0.2-11.8,0.3-17.9,0.3c-7.2,0-14.2-0.1-21-0.4
				l0.3-8.5c-0.6-21.5,0.7-48.5,1.1-77.4c17.5,2,38.5,7,38.2,19.3L186.8,303z M279.6,286.4c-8.7,6.8-31.8,12.1-62.3,14.9l0.4-36.7
				c34.9,4.5,63.2,9.7,63.2,18C280.9,283.9,280.5,285.2,279.6,286.4"/>
			<path class="st4" d="M312.1,284.6c-0.7-14.3-43.7-25.4-94.4-23l0.4-34.1c-0.1-21.1-28.9-19-38.7-17.8c11.4-2.1,49.4-11.6,47-46.4
				c-1.6-23.1-30.5-34.6-78.4-30c-0.8,0.1-1.6,0.2-2.3,0.2c-2.3-17.1-5.8-33.6-11.1-48.9c-6.7,20.7-10.5,37-12.7,52.2
				c-29.7,5-50.7,11.8-50.7,11.8s23.1-2.1,49.5-1.7c-3,30.4,0.1,59.3,0,114.7c-50.4-1.8-94.1,8-93.6,22.9c0.5,13,39.2,25,93.6,29.6
				l2.3,73.9l3.8-50.1c0.1-6.2,4.9-5.6,4.9-0.3l1.7,66l4.1-53.7c-0.1-7.3,5-6.9,4.8-0.4l1.9,68.8l3.3-102.6c7,0.3,14.1,0.4,21.4,0.4
				c6.9,0,13.7-0.1,20.3-0.3l3.3,104.4l2.8-54.7c0-7,4.8-6.6,4.7-0.4l2.8,76.6l2.9-66.2c0.2-6.5,5.4-6.2,5.5,0l2.4,87.8l3.5-149
				v-0.1C272.1,309.6,312.1,297.7,312.1,284.6 M196.2,170.3c3.9,28.9-25.6,38.4-46.8,41.5c0.2-20.8-0.1-42.4-2-63.5
				C172.4,150.8,194.4,156.8,196.2,170.3 M55.4,280.3c0-8.8,32.6-13.5,65.3-18.4c0,10.5-0.2,22-0.5,34.6l0.2,4.8
				C81.7,297.7,55.4,290,55.4,280.3 M147.9,302.9l0.3-8.5c-0.7-22.2,0.8-50.2,1.2-80c17.8,1.8,40.9,6.7,40.5,19.5l-0.7,69
				c-6.6,0.2-13.3,0.3-20.3,0.3C161.7,303.3,154.7,303.2,147.9,302.9 M217.3,301.3l0.5-39.3c36,4.6,65.6,9.8,65.6,18.3
				C283.3,290.1,256.4,297.8,217.3,301.3"/>
		</g>
		<path class="st5" d="M-81.7,211.3c-4.5,1.5-9,3-13.4,4.6c-2.9,1-5.2,4.3-5.2,7.2c0,15.4,0,30.8,0,46.1c0,2.9,2.3,4.5,5.2,3.5
			c4.5-1.6,8.9-3.1,13.4-4.6c2.9-1,5.2-4.1,5.2-7c0-15.4,0-30.8,0-46.1C-76.5,212-78.8,210.3-81.7,211.3z M-85.1,260.4
			c-2.2,0.7-4.4,1.5-6.6,2.3c0-13,0-26.1,0-39.1c2.2-0.8,4.4-1.5,6.6-2.3C-85.1,234.3-85.1,247.4-85.1,260.4z M53.1,179
			c-4.6,0.7-9.3,1.4-13.9,2.2c-3,0.5-5.4,3.3-5.4,6.2c0,15.4,0,30.8,0,46.1c0,2.9,2.4,4.9,5.4,4.4c4.6-0.8,9.2-1.5,13.9-2.2
			c3-0.4,5.4-3.2,5.4-6.1c0-15.4,0-30.8,0-46.1C58.5,180.7,56.1,178.6,53.1,179z M49.6,227.5c-2.3,0.3-4.5,0.7-6.8,1.1
			c0-13,0-26.1,0-39.1c2.3-0.4,4.5-0.7,6.8-1.1C49.6,201.4,49.6,214.5,49.6,227.5z M-51,201.7c2.9-0.8,5.8-1.7,8.7-2.5
			c0,17.1,0,34.3,0,51.5c0,2.9-2.4,6-5.3,6.8c-4.5,1.3-9,2.6-13.6,4c-2.9,0.9-5.2-0.8-5.2-3.7c0-17.1,0-34.3,0-51.5
			c2.9-0.9,5.8-1.8,8.7-2.7c0,16,0,32,0,48c2.2-0.7,4.4-1.3,6.6-2C-51,233.7-51,217.7-51,201.7z M-118.9,224.8
			c2.8-1.1,5.7-2.2,8.5-3.3c0,18.9,0,37.9,0,56.8c-2.9,1.1-5.7,2.2-8.5,3.3c0-8,0-16,0-24c-2,0.8-4,1.6-5.9,2.3c0,8,0,16,0,24
			c-2.8,1.1-5.7,2.3-8.5,3.5c0-18.9,0-37.9,0-56.8c2.8-1.2,5.7-2.3,8.5-3.5c0,8,0,16,0,24c2-0.8,3.9-1.6,5.9-2.3
			C-118.9,240.8-118.9,232.8-118.9,224.8z M0.9,188.6c8.1-1.8,16.2-3.4,24.4-4.9c0,2.9,0,5.9,0,8.8c-2.6,0.5-5.2,1-7.8,1.5
			c0,16,0,32,0,48c-3,0.6-5.9,1.2-8.9,1.8c0-16,0-32,0-48c-2.6,0.5-5.2,1.1-7.7,1.6C0.9,194.4,0.9,191.5,0.9,188.6z M92.4,174.2
			c0,18.9,0,37.9,0,56.8c-3,0.3-6,0.6-9,0.9c0-3.3,0-6.6,0-9.9c-2.1-5.9-4.2-11.8-6.2-17.7c0,9.4,0,18.9,0,28.3c-3,0.3-6,0.7-9,1.1
			c0-18.9,0-37.9,0-56.8c2.9-0.4,5.8-0.7,8.8-1.1c2.1,6.1,4.3,12.1,6.4,18.2c0-6.3,0-12.6,0-18.9C86.5,174.8,89.4,174.5,92.4,174.2z
			 M-7.6,195.8c0,2.2,0,4.4,0,6.6c-2.9,0.7-5.9,1.4-8.8,2.1c0-1,0-2.1,0-3.1c-2.2,0.5-4.5,1.1-6.7,1.6c0,3.9,0,7.8,0,11.7
			c4.2,2,8.5,4,12.7,6.1c2.1,1,2.8,2.8,2.8,5.3c0,5.3,0,10.6,0,15.8c0,2.9-2.4,5.9-5.3,6.6c-4.6,1.1-9.1,2.2-13.7,3.4
			c-2.9,0.7-5.3-1-5.3-4c0-2.2,0-4.4,0-6.6c2.9-0.8,5.9-1.5,8.8-2.3c0,1,0,2.1,0,3.1c2.2-0.6,4.5-1.1,6.7-1.6c0-3.9,0-7.8,0-11.7
			c-4.2-2-8.5-4-12.7-6c-2.1-1-2.8-2.8-2.8-5.2c0-5.3,0-10.6,0-15.8c0-2.9,2.4-6,5.3-6.7c4.5-1.2,9.1-2.3,13.7-3.4
			C-10,191-7.6,192.9-7.6,195.8z M299.4,181.5c-4.6-0.8-9.2-1.5-13.9-2.2c-3-0.4-5.4,1.6-5.4,4.5c0,15.4,0,30.8,0,46.1
			c0,2.9,2.4,5.7,5.4,6.1c4.6,0.7,9.2,1.4,13.9,2.2c3,0.5,5.4-1.5,5.4-4.4c0-15.4,0-30.8,0-46.1C304.7,184.8,302.3,182,299.4,181.5z
			 M295.8,228.9c-2.3-0.4-4.5-0.7-6.8-1.1c0-13,0-26.1,0-39.1c2.3,0.3,4.5,0.7,6.8,1.1C295.8,202.8,295.8,215.8,295.8,228.9z
			 M415.5,210.3c7.9,2.6,15.8,5.4,23.7,8.2c0,2.9,0,5.9,0,8.8c-2.5-0.9-5-1.8-7.5-2.7c0,16,0,32,0,48c-2.9-1-5.7-2-8.6-3
			c0-16,0-32,0-48c-2.5-0.9-5-1.7-7.5-2.5C415.5,216.2,415.5,213.2,415.5,210.3z M461.6,239.1c0-1,0-2.1,0-3.1
			c-2.2-0.9-4.3-1.7-6.5-2.6c0,3.9,0,7.8,0,11.7c4.1,4.7,8.2,9.3,12.3,14.1c2,2.3,2.7,4.6,2.7,7c0,5.3,0,10.6,0,15.8
			c0,2.9-2.3,4.4-5.1,3.2c-4.4-1.8-8.8-3.5-13.2-5.2c-2.8-1.1-5.2-4.4-5.2-7.3c0-2.2,0-4.4,0-6.6c2.9,1.1,5.7,2.2,8.5,3.3
			c0,1,0,2.1,0,3.1c2.2,0.8,4.3,1.7,6.5,2.6c0-3.9,0-7.8,0-11.7c-4.1-4.7-8.2-9.4-12.3-14c-2-2.3-2.7-4.5-2.7-6.9
			c0-5.3,0-10.6,0-15.8c0-2.9,2.3-4.5,5.2-3.4c4.4,1.7,8.8,3.5,13.2,5.2c2.8,1.1,5.1,4.5,5.1,7.4c0,2.2,0,4.4,0,6.6
			C467.3,241.3,464.5,240.2,461.6,239.1z M374.4,198c-3,8.6-6.1,17.3-9.1,26c3,10.3,6.1,20.5,9.1,30.8c-3.1-0.8-6.1-1.6-9.2-2.4
			c-2.4-8.2-4.8-16.3-7.3-24.5c0,7.5,0,15.1,0,22.6c-2.9-0.7-5.9-1.4-8.8-2.1c0-18.9,0-37.9,0-56.8c2.9,0.7,5.9,1.4,8.8,2.1
			c0,7.5,0,15.1,0,22.6c2.4-6.9,4.8-13.9,7.3-20.8C368.3,196.3,371.4,197.1,374.4,198z M339.2,194.6c0,2.3,0,4.5,0,6.8
			c-2.9-0.7-5.9-1.3-8.8-1.9c0-1.1,0-2.2,0-3.3c-2.3-0.5-4.5-0.9-6.7-1.4c0,13,0,26.1,0,39.1c2.3,0.5,4.5,0.9,6.7,1.4c0-1,0-2,0-2.9
			c3,0.6,5.9,1.3,8.8,1.9c0,2.1,0,4.3,0,6.4c0,2.9-2.4,4.8-5.3,4.2c-4.6-1-9.2-1.9-13.8-2.8c-2.9-0.6-5.4-3.4-5.4-6.4
			c0-15.4,0-30.8,0-46.1c0-2.9,2.4-4.9,5.4-4.3c4.6,0.9,9.2,1.8,13.8,2.8C336.8,188.7,339.2,191.7,339.2,194.6z M269.2,204.5
			c0-7.4,0-14.8,0-22.2c0-2.9-2.4-5.6-5.4-6c-6.4-0.8-12.9-1.5-19.3-2.1l0,0c0,18.9,0,37.9,0,56.8c3,0.3,6,0.6,9,0.9c0-8,0-16,0-24
			c1.2,0.1,2.4,0.3,3.6,0.4c1.3,8.1,2.6,16.3,3.9,24.4c3,0.4,6,0.7,9.1,1.1c-1.3-8.3-2.7-16.6-4-25
			C267.9,208.3,269.2,206.7,269.2,204.5z M260.3,199.9c-2.3-0.3-4.5-0.5-6.8-0.8c0-5,0-10.1,0-15.1c2.3,0.3,4.5,0.5,6.8,0.8
			C260.3,189.8,260.3,194.9,260.3,199.9z M384.3,200.7c7.9,2.3,15.8,4.6,23.7,7.2c0,2.9,0,5.9,0,8.8c-5-1.6-10-3.1-15-4.6
			c0,5,0,10.1,0,15.1c3.7,1.1,7.4,2.2,11.1,3.4c0,2.9,0,5.9,0,8.8c-3.7-1.2-7.4-2.3-11.1-3.4c0,5,0,10.1,0,15.1c5,1.5,10,3,15,4.6
			c0,2.9,0,5.9,0,8.8c-7.9-2.5-15.8-4.9-23.7-7.2C384.3,238.5,384.3,219.6,384.3,200.7z"/>
	</g>
</g>
</svg>
